<?xml version="1.0" encoding="UTF-8"?>
<svg version="1.1" xmlns="http://www.w3.org/2000/svg" width="400" height="400">
<path d="M0 0 C1.3905523 -0.00417693 2.78110119 -0.00965641 4.17164379 -0.01631981 C7.97859224 -0.03074608 11.78532366 -0.02653859 15.59228384 -0.019153 C19.70348546 -0.01441665 23.81464043 -0.02693527 27.92582703 -0.03717041 C35.97432842 -0.05435436 44.02275173 -0.05519929 52.0712667 -0.04995751 C58.61372262 -0.04591397 65.15615549 -0.04736154 71.69861031 -0.05270576 C72.63022462 -0.05345419 73.56183893 -0.05420261 74.52168398 -0.05497371 C76.41432913 -0.05650521 78.30697428 -0.05804355 80.19961942 -0.05958868 C97.94274673 -0.07331215 115.68582992 -0.06787701 133.42895622 -0.05640347 C149.65662606 -0.04647032 165.8841819 -0.05941344 182.11183416 -0.08333766 C198.78095568 -0.10772729 215.45002409 -0.11733692 232.1191631 -0.11068493 C241.47501857 -0.10719253 250.83078636 -0.10942622 260.18662834 -0.12693596 C268.15064155 -0.14165619 276.11450531 -0.14229568 284.07851558 -0.12486505 C288.14043924 -0.11635136 292.20209591 -0.1142144 296.26400566 -0.1295166 C299.98553269 -0.14336277 303.70656398 -0.13860191 307.42806233 -0.11927737 C309.40535848 -0.11374116 311.38267987 -0.12778947 313.35992807 -0.14263147 C322.84963159 -0.06416195 330.59889845 1.86594336 337.68145823 8.46055555 C344.81458715 16.929044 346.17979257 25.81971684 346.06660461 36.54380798 C346.0735334 37.93568492 346.08307298 39.32755085 346.09496808 40.71939421 C346.11983524 44.51174937 346.10771958 48.3031896 346.08905077 52.09554648 C346.07540646 56.1979135 346.0964633 60.3001294 346.1129303 64.40246582 C346.13954255 72.42611205 346.13387771 80.4494206 346.11645445 88.4730798 C346.10287739 94.99684161 346.10107797 101.52050911 346.10759735 108.04428101 C346.10851675 108.97448719 346.10943615 109.90469337 346.11038341 110.86308762 C346.11230185 112.75306947 346.11424713 114.64305128 346.11621895 116.53303307 C346.13330843 134.23531357 346.1136874 151.93740733 346.08141676 169.6396572 C346.05461195 184.81308251 346.05926865 199.98623237 346.08692932 215.15965271 C346.1190735 232.80066665 346.13166066 250.44151711 346.11325574 268.08255625 C346.11134454 269.96539717 346.10945832 271.84823813 346.10759735 273.7310791 C346.1066717 274.65735586 346.10574604 275.58363263 346.10479234 276.53797838 C346.0996223 283.05025117 346.1083334 289.56241985 346.12247467 296.07467651 C346.13934144 304.01626355 346.134668 311.95749498 346.10279021 319.89904153 C346.08707328 323.94729315 346.08075663 327.99495294 346.10068512 332.04319954 C346.11868381 335.75570937 346.10854713 339.46708393 346.07681981 343.17949206 C346.06703829 345.144433 346.08642502 347.10945398 346.10716319 349.07430983 C345.98545816 358.33372231 343.74577682 366.11521339 337.68145823 373.31480455 C329.4150388 381.01171529 320.41298896 381.97361996 309.50933838 381.90907288 C308.12005714 381.91512193 306.73078257 381.92290392 305.34151965 381.93225801 C301.5425748 381.9527589 297.74400869 381.94846986 293.94503319 381.93989682 C289.84058798 381.93495145 285.73623269 381.95300415 281.63182068 381.9679718 C273.59781163 381.99344044 265.56393634 381.99705634 257.52989372 381.99237128 C250.99749187 381.98880159 244.46513054 381.99231135 237.93273354 382.00082016 C236.53681456 382.00260573 236.53681456 382.00260573 235.11269519 382.00442737 C233.22198877 382.00685094 231.33128235 382.0092792 229.44057593 382.01171212 C211.71832768 382.03345367 193.99615558 382.02914276 176.27390305 382.01694243 C160.07413738 382.00660633 143.87461232 382.02911054 127.67489424 382.06713887 C111.02718591 382.10591817 94.37959135 382.12240365 77.73183757 382.11489236 C68.39094519 382.11107148 59.05025755 382.11601231 49.70940208 382.14432144 C41.75678633 382.16817998 33.80450131 382.17092478 25.85188087 382.14674111 C21.7975582 382.13498447 17.74384 382.13270453 13.68955803 382.15674591 C9.97140375 382.17853707 6.25435589 382.17217419 2.5362526 382.14422254 C0.56816564 382.13646707 -1.39997115 382.15796498 -3.36794072 382.18081629 C-12.63661199 382.06876719 -20.41572591 379.83506449 -27.62234288 373.76438296 C-35.31952987 365.49833852 -36.28123578 356.49573596 -36.21669006 345.59231567 C-36.22273912 344.20303444 -36.23052111 342.81375986 -36.2398752 341.42449695 C-36.26037609 337.6255521 -36.25608705 333.82698598 -36.24751401 330.02801049 C-36.24256864 325.92356528 -36.26062134 321.81920999 -36.27558899 317.71479797 C-36.30105763 309.68078892 -36.30467353 301.64691364 -36.29998846 293.61287101 C-36.29641878 287.08046916 -36.29992853 280.54810784 -36.30843735 274.01571083 C-36.30962773 273.08509818 -36.3108181 272.15448552 -36.31204455 271.19567249 C-36.31446812 269.30496606 -36.31689639 267.41425964 -36.31932931 265.52355323 C-36.34107086 247.80130498 -36.33675995 230.07913288 -36.32455961 212.35688034 C-36.31422352 196.15711467 -36.33672772 179.95758961 -36.37475605 163.75787153 C-36.41353536 147.11016321 -36.43002083 130.46256864 -36.42250955 113.81481487 C-36.41868867 104.47392249 -36.42362949 95.13323484 -36.45193863 85.79237938 C-36.47579717 77.83976362 -36.47854197 69.8874786 -36.45435829 61.93485817 C-36.44260166 57.88053549 -36.44032172 53.8268173 -36.4643631 49.77253532 C-36.48615425 46.05438105 -36.47979138 42.33733318 -36.45183973 38.61922989 C-36.44408426 36.65114293 -36.46558217 34.68300615 -36.48843348 32.71503657 C-36.37411259 23.25844308 -34.07543321 15.3008863 -27.6708771 8.11688441 C-19.538184 0.24292988 -10.79380697 -0.0506092 0 0 Z " fill="#F6F6F6" transform="translate(44.69529724121094,8.612319946289063)"/>
<path d="M0 0 C1.44413773 -0.0007402 1.44413773 -0.0007402 2.91744995 -0.00149536 C20.70935116 0.04295721 38.37717395 1.42349399 56 3.875 C56.84949219 3.98392578 57.69898438 4.09285156 58.57421875 4.20507812 C64.2554969 4.98057688 69.72460427 6.20641932 75.27294922 7.64575195 C78.39548437 8.4427283 81.52656991 9.16583344 84.671875 9.8671875 C102.48194164 13.84664131 119.26838729 18.77924367 136.19970703 25.56884766 C138.29414556 26.40521267 140.39384379 27.22646762 142.49609375 28.04296875 C149.64475618 30.83422468 156.59517726 33.83222956 163.375 37.4375 C161.49449522 42.96839641 159.10892031 48.08340366 156.46630859 53.29052734 C148.46314157 69.09950096 141.06112187 85.21379385 133.53439331 101.25341797 C128.75676487 111.4313579 123.91211713 121.5738378 119 131.6875 C114.49764851 140.95882691 110.09589329 150.26288669 105.92041016 159.68652344 C103.63312568 164.81279921 101.18999863 169.84695014 98.6640625 174.859375 C94.42119675 183.28055288 90.36686784 191.78598198 86.3371582 200.31082153 C84.2543715 204.71671245 82.1658838 209.11990105 80.078125 213.5234375 C79.46420898 214.81886223 79.46420898 214.81886223 78.83789062 216.14045715 C75.53695691 223.10332248 72.21447041 230.05552177 68.875 237 C68.40191406 237.98419922 67.92882812 238.96839844 67.44140625 239.98242188 C66.52686149 241.88452127 65.61215363 243.78654224 64.69726562 245.68847656 C59.3211499 256.86555614 53.95856944 268.04843082 48.69140625 279.27734375 C48.36824936 279.96619156 48.04509247 280.65503937 47.71214294 281.36476135 C47.04378152 282.7895503 46.37542114 284.21433973 45.70706177 285.63912964 C45.20237869 286.71494797 45.20237869 286.71494797 44.6875 287.8125 C44.18124588 288.89182297 44.18124588 288.89182297 43.6647644 289.99295044 C38.2647347 301.49832312 32.75406724 312.94612649 27.18429565 324.37014771 C21.89564898 335.22343942 16.7438308 346.13303893 11.71020508 357.10693359 C8.40762415 364.29209304 4.95410273 371.38595655 1.375 378.4375 C-1.16605941 375.28935186 -2.91121597 372.04724279 -4.6640625 368.40625 C-4.9462262 367.82231979 -5.22838989 367.23838959 -5.519104 366.63676453 C-6.43405914 364.73920928 -7.34226232 362.83851712 -8.25 360.9375 C-8.88287504 359.62015041 -9.51585103 358.30284932 -10.14892578 356.9855957 C-14.08548234 348.77247108 -17.88871692 340.50818136 -21.58374023 332.18334961 C-24.00435246 326.75114331 -26.57711869 321.42234784 -29.26635742 316.11889648 C-32.69338209 309.3464626 -36.01038245 302.52155892 -39.3125 295.6875 C-39.61403992 295.0635434 -39.91557983 294.43958679 -40.22625732 293.79672241 C-45.09676948 283.70678855 -49.82945367 273.55756055 -54.51831055 263.38183594 C-58.93315889 253.84030212 -63.51144064 244.38414105 -68.125 234.9375 C-75.01706153 220.82412118 -81.70545983 206.6318258 -88.27490234 192.36523438 C-92.3945287 183.43167935 -96.5466207 174.52274488 -101 165.75 C-104.02550872 159.76100893 -106.8086001 153.6806601 -109.5625 147.5625 C-112.41392323 141.23429003 -115.29674835 134.94025061 -118.4375 128.75 C-126.9627276 111.94211466 -135.01296458 94.9016675 -142.80297852 77.7421875 C-145.67433142 71.44012036 -148.68350457 65.23153303 -151.83129883 59.0637207 C-155.41090594 51.99523601 -158.52367622 44.72561087 -161.625 37.4375 C-150.17130497 31.88419332 -138.54044152 26.91741196 -126.625 22.4375 C-125.75891113 22.11136719 -124.89282227 21.78523438 -124.00048828 21.44921875 C-84.25634999 6.76005444 -42.26458752 -0.00296163 0 0 Z " fill="#151210" transform="translate(198.625,9.5625)"/>
<path d="M0 0 C1.44413773 -0.0007402 1.44413773 -0.0007402 2.91744995 -0.00149536 C20.70935116 0.04295721 38.37717395 1.42349399 56 3.875 C56.84949219 3.98392578 57.69898438 4.09285156 58.57421875 4.20507812 C64.2554969 4.98057688 69.72460427 6.20641932 75.27294922 7.64575195 C78.39548437 8.4427283 81.52656991 9.16583344 84.671875 9.8671875 C102.48194164 13.84664131 119.26838729 18.77924367 136.19970703 25.56884766 C138.29414556 26.40521267 140.39384379 27.22646762 142.49609375 28.04296875 C149.64475618 30.83422468 156.59517726 33.83222956 163.375 37.4375 C161.49449522 42.96839641 159.10892031 48.08340366 156.46630859 53.29052734 C148.46314157 69.09950096 141.06112187 85.21379385 133.53439331 101.25341797 C128.75676487 111.4313579 123.91211713 121.5738378 119 131.6875 C114.49764851 140.95882691 110.09589329 150.26288669 105.92041016 159.68652344 C103.63312568 164.81279921 101.18999863 169.84695014 98.6640625 174.859375 C94.42119675 183.28055288 90.36686784 191.78598198 86.3371582 200.31082153 C84.2543715 204.71671245 82.1658838 209.11990105 80.078125 213.5234375 C79.46420898 214.81886223 79.46420898 214.81886223 78.83789062 216.14045715 C75.53695691 223.10332248 72.21447041 230.05552177 68.875 237 C68.40191406 237.98419922 67.92882812 238.96839844 67.44140625 239.98242188 C66.52686149 241.88452127 65.61215363 243.78654224 64.69726562 245.68847656 C59.3211499 256.86555614 53.95856944 268.04843082 48.69140625 279.27734375 C48.36824936 279.96619156 48.04509247 280.65503937 47.71214294 281.36476135 C47.04378152 282.7895503 46.37542114 284.21433973 45.70706177 285.63912964 C45.20237869 286.71494797 45.20237869 286.71494797 44.6875 287.8125 C44.18124588 288.89182297 44.18124588 288.89182297 43.6647644 289.99295044 C38.2647347 301.49832312 32.75406724 312.94612649 27.18429565 324.37014771 C21.89564898 335.22343942 16.7438308 346.13303893 11.71020508 357.10693359 C8.40762415 364.29209304 4.95410273 371.38595655 1.375 378.4375 C-1.16605941 375.28935186 -2.91121597 372.04724279 -4.6640625 368.40625 C-4.9462262 367.82231979 -5.22838989 367.23838959 -5.519104 366.63676453 C-6.43405914 364.73920928 -7.34226232 362.83851712 -8.25 360.9375 C-8.88287504 359.62015041 -9.51585103 358.30284932 -10.14892578 356.9855957 C-14.08548234 348.77247108 -17.88871692 340.50818136 -21.58374023 332.18334961 C-24.00435246 326.75114331 -26.57711869 321.42234784 -29.26635742 316.11889648 C-32.69338209 309.3464626 -36.01038245 302.52155892 -39.3125 295.6875 C-39.61403992 295.0635434 -39.91557983 294.43958679 -40.22625732 293.79672241 C-45.09676948 283.70678855 -49.82945367 273.55756055 -54.51831055 263.38183594 C-58.93315889 253.84030212 -63.51144064 244.38414105 -68.125 234.9375 C-75.01706153 220.82412118 -81.70545983 206.6318258 -88.27490234 192.36523438 C-92.3945287 183.43167935 -96.5466207 174.52274488 -101 165.75 C-104.02550872 159.76100893 -106.8086001 153.6806601 -109.5625 147.5625 C-112.41392323 141.23429003 -115.29674835 134.94025061 -118.4375 128.75 C-126.9627276 111.94211466 -135.01296458 94.9016675 -142.80297852 77.7421875 C-145.67433142 71.44012036 -148.68350457 65.23153303 -151.83129883 59.0637207 C-155.41090594 51.99523601 -158.52367622 44.72561087 -161.625 37.4375 C-150.17130497 31.88419332 -138.54044152 26.91741196 -126.625 22.4375 C-125.75891113 22.11136719 -124.89282227 21.78523438 -124.00048828 21.44921875 C-84.25634999 6.76005444 -42.26458752 -0.00296163 0 0 Z M-99.125 76.4375 C-100.0757692 76.75163345 -100.0757692 76.75163345 -101.04574585 77.07211304 C-110.7829322 80.30908113 -120.48052951 83.74198057 -129.625 88.4375 C-128.90942374 91.84692167 -127.64278044 94.79519544 -126.18359375 97.953125 C-125.43819336 99.56973022 -125.43819336 99.56973022 -124.67773438 101.21899414 C-124.14470703 102.36360107 -123.61167969 103.50820801 -123.0625 104.6875 C-122.51529297 105.86755615 -121.96808594 107.0476123 -121.40429688 108.26342773 C-118.26240248 115.01026664 -115.05328286 121.71171195 -111.68725586 128.34912109 C-103.33514998 144.84279325 -95.57635606 161.63857612 -87.72396851 178.37426758 C-83.02549943 188.38524429 -78.26581334 198.36353536 -73.4375 208.3125 C-68.92838149 217.60467025 -64.51298709 226.93346047 -60.1875 236.3125 C-54.04828403 249.62055999 -47.67556393 262.80807213 -41.26853943 275.98858643 C-37.10948028 284.54918084 -33.01542094 293.14076541 -28.91796875 301.73095703 C-27.62590062 304.43561476 -26.32928315 307.13804427 -25.03125 309.83984375 C-22.21708658 315.6999986 -19.41808529 321.56727248 -16.625 327.4375 C-16.31614868 328.08571716 -16.00729736 328.73393433 -15.68908691 329.40179443 C-13.62765931 333.72906885 -11.57308986 338.05950854 -9.52600098 342.39358521 C-8.8465339 343.82994465 -8.16516208 345.26540472 -7.48181152 346.69992065 C-6.5216157 348.71675027 -5.56860292 350.73682902 -4.6171875 352.7578125 C-4.06401855 353.92586426 -3.51084961 355.09391602 -2.94091797 356.29736328 C-1.78291754 359.06066598 -1.06838648 361.48735436 -0.625 364.4375 C0.365 364.4375 1.355 364.4375 2.375 364.4375 C2.63603516 363.88513672 2.89707031 363.33277344 3.16601562 362.76367188 C4.40054004 360.1540905 5.63777492 357.54580199 6.875 354.9375 C7.28492188 354.06996094 7.69484375 353.20242188 8.1171875 352.30859375 C10.7308849 346.80398861 13.41729006 341.34135604 16.15625 335.8984375 C20.70176139 326.85220942 25.04422656 317.71299801 29.375 308.5625 C30.20774591 306.80634947 31.04059278 305.05024681 31.87353516 303.29418945 C37.52195353 291.37960153 43.13650342 279.44922104 48.74130249 267.5140686 C54.71943455 254.78747921 60.80177666 242.11330322 66.91943359 229.453125 C72.60314417 217.67768168 78.22205707 205.87115313 83.828125 194.05859375 C84.22557922 193.22115128 84.62303345 192.3837088 85.03253174 191.52088928 C86.68920259 188.03012381 88.34585846 184.53935132 90.0020752 181.04837036 C95.04948614 170.41074583 100.12232604 159.78670932 105.25 149.1875 C110.73555746 137.84201527 116.05148502 126.4225372 121.33984375 114.984375 C125.29258903 106.44073943 129.32492424 97.93533337 133.375 89.4375 C116.4865133 71.21529188 72.03780849 66.28782034 48.375 62.4375 C47.33021484 62.26105957 46.28542969 62.08461914 45.20898438 61.90283203 C-2.26996565 54.03903351 -53.73974896 61.43345211 -99.125 76.4375 Z " fill="#1A150F" transform="translate(198.625,9.5625)"/>
<path d="M0 0 C17.36603645 0 33.01971261 0.1793636 49.875 3.3125 C51.10677979 3.53905273 52.33855957 3.76560547 53.60766602 3.99902344 C62.5119883 5.66487593 71.29976656 7.45423299 80 10 C81.05832031 10.30953613 82.11664063 10.61907227 83.20703125 10.93798828 C95.34515819 14.52649466 107.50306783 18.13401018 119.25 22.875 C120.2853186 23.28552612 120.2853186 23.28552612 121.34155273 23.7043457 C123.203125 24.4921875 123.203125 24.4921875 126 26 C127.28123118 29.84369354 126.48635962 30.72562743 124.78125 34.328125 C124.26884766 35.42189453 123.75644531 36.51566406 123.22851562 37.64257812 C122.65259888 38.8451743 122.07641911 40.04764454 121.5 41.25 C120.90748768 42.50421956 120.3157044 43.75878375 119.72460938 45.01367188 C114.76521595 55.51194767 109.6860941 65.95390469 104.60522461 76.39379883 C99.7571224 86.36671838 95.07167531 96.40771564 90.43066406 106.47851562 C87.34318202 113.16132723 84.16207918 119.77595143 80.81469727 126.33178711 C78.20681385 131.48072046 75.84363959 136.72631522 73.5 142 C70.86775729 147.91864895 68.18068217 153.78539468 65.25 159.5625 C56.96875444 175.89177632 49.02302332 192.40630467 41.59814453 209.14306641 C39.26027388 214.37464302 36.76536 219.50885663 34.1875 224.625 C30.42636921 232.09049353 26.83492345 239.62600267 23.29882812 247.20025635 C21.58571893 250.86891786 19.86546268 254.53422135 18.14453125 258.19921875 C17.79919342 258.93474976 17.45385559 259.67028076 17.09805298 260.42810059 C11.8174941 271.659564 6.41145102 282.8311476 1 294 C0.67 294 0.34 294 0 294 C0 234.6 0 175.2 0 114 C-3.63 113.67 -7.26 113.34 -11 113 C-17.36927955 110.97634283 -22.52248477 107.75588727 -26 102 C-25.81395349 97.81395349 -25.81395349 97.81395349 -24 96 C-19.22882076 95.68378149 -14.47676947 95.85851306 -9.75 96.5625 C-6.17650785 96.97940742 -3.48733803 96.78465106 0 96 C0 94.35 0 92.7 0 91 C-0.7734375 90.814375 -0.7734375 90.814375 -1.5625 90.625 C-4.72702351 89.81358372 -7.86124985 88.9054087 -11 88 C-10.01 87.01 -10.01 87.01 -9 86 C-6.36 86.33 -3.72 86.66 -1 87 C-0.67 58.29 -0.34 29.58 0 0 Z " fill="#E30110" transform="translate(201,72)"/>
<path d="M0 0 C1.44413773 -0.0007402 1.44413773 -0.0007402 2.91744995 -0.00149536 C20.70935116 0.04295721 38.37717395 1.42349399 56 3.875 C56.84949219 3.98392578 57.69898438 4.09285156 58.57421875 4.20507812 C64.2554969 4.98057688 69.72460427 6.20641932 75.27294922 7.64575195 C78.39548437 8.4427283 81.52656991 9.16583344 84.671875 9.8671875 C102.48194164 13.84664131 119.26838729 18.77924367 136.19970703 25.56884766 C138.29414556 26.40521267 140.39384379 27.22646762 142.49609375 28.04296875 C149.64475618 30.83422468 156.59517726 33.83222956 163.375 37.4375 C161.49449522 42.96839641 159.10892031 48.08340366 156.46630859 53.29052734 C148.46314157 69.09950096 141.06112187 85.21379385 133.53439331 101.25341797 C128.75676487 111.4313579 123.91211713 121.5738378 119 131.6875 C114.49764851 140.95882691 110.09589329 150.26288669 105.92041016 159.68652344 C103.63312568 164.81279921 101.18999863 169.84695014 98.6640625 174.859375 C94.42119675 183.28055288 90.36686784 191.78598198 86.3371582 200.31082153 C84.2543715 204.71671245 82.1658838 209.11990105 80.078125 213.5234375 C79.46420898 214.81886223 79.46420898 214.81886223 78.83789062 216.14045715 C75.53695691 223.10332248 72.21447041 230.05552177 68.875 237 C68.40191406 237.98419922 67.92882812 238.96839844 67.44140625 239.98242188 C66.52686149 241.88452127 65.61215363 243.78654224 64.69726562 245.68847656 C59.3211499 256.86555614 53.95856944 268.04843082 48.69140625 279.27734375 C48.36824936 279.96619156 48.04509247 280.65503937 47.71214294 281.36476135 C47.04378152 282.7895503 46.37542114 284.21433973 45.70706177 285.63912964 C45.20237869 286.71494797 45.20237869 286.71494797 44.6875 287.8125 C44.18124588 288.89182297 44.18124588 288.89182297 43.6647644 289.99295044 C38.2647347 301.49832312 32.75406724 312.94612649 27.18429565 324.37014771 C21.89564898 335.22343942 16.7438308 346.13303893 11.71020508 357.10693359 C8.40762415 364.29209304 4.95410273 371.38595655 1.375 378.4375 C-1.16605941 375.28935186 -2.91121597 372.04724279 -4.6640625 368.40625 C-4.9462262 367.82231979 -5.22838989 367.23838959 -5.519104 366.63676453 C-6.43405914 364.73920928 -7.34226232 362.83851712 -8.25 360.9375 C-8.88287504 359.62015041 -9.51585103 358.30284932 -10.14892578 356.9855957 C-14.08548234 348.77247108 -17.88871692 340.50818136 -21.58374023 332.18334961 C-24.00435246 326.75114331 -26.57711869 321.42234784 -29.26635742 316.11889648 C-32.69338209 309.3464626 -36.01038245 302.52155892 -39.3125 295.6875 C-39.61403992 295.0635434 -39.91557983 294.43958679 -40.22625732 293.79672241 C-45.09676948 283.70678855 -49.82945367 273.55756055 -54.51831055 263.38183594 C-58.93315889 253.84030212 -63.51144064 244.38414105 -68.125 234.9375 C-75.01706153 220.82412118 -81.70545983 206.6318258 -88.27490234 192.36523438 C-92.3945287 183.43167935 -96.5466207 174.52274488 -101 165.75 C-104.02550872 159.76100893 -106.8086001 153.6806601 -109.5625 147.5625 C-112.41392323 141.23429003 -115.29674835 134.94025061 -118.4375 128.75 C-126.9627276 111.94211466 -135.01296458 94.9016675 -142.80297852 77.7421875 C-145.67433142 71.44012036 -148.68350457 65.23153303 -151.83129883 59.0637207 C-155.41090594 51.99523601 -158.52367622 44.72561087 -161.625 37.4375 C-150.17130497 31.88419332 -138.54044152 26.91741196 -126.625 22.4375 C-125.75891113 22.11136719 -124.89282227 21.78523438 -124.00048828 21.44921875 C-84.25634999 6.76005444 -42.26458752 -0.00296163 0 0 Z M-63.1340332 12.91943359 C-65.71854236 13.45695476 -68.30886808 13.9530029 -70.90234375 14.4453125 C-91.99339713 18.55732264 -112.70235245 24.33961093 -132.625 32.4375 C-134.29949219 33.118125 -134.29949219 33.118125 -136.0078125 33.8125 C-138.88884004 35.00172021 -141.75954799 36.21131265 -144.625 37.4375 C-145.76001953 37.92089844 -145.76001953 37.92089844 -146.91796875 38.4140625 C-148.48853056 39.08492124 -150.05709683 39.7604509 -151.625 40.4375 C-151.05608828 45.16504488 -149.70822976 48.79009184 -147.60546875 53.05078125 C-147.15570427 53.97155708 -147.15570427 53.97155708 -146.69685364 54.91093445 C-145.74266184 56.86095533 -144.77806 58.80558693 -143.8125 60.75 C-142.55326157 63.30725718 -141.29807582 65.86649445 -140.04296875 68.42578125 C-139.74252655 69.03640411 -139.44208435 69.64702698 -139.13253784 70.27615356 C-136.84150749 74.94780497 -134.69200612 79.66308033 -132.625 84.4375 C-129.13831687 83.82796982 -126.0474424 82.91986965 -122.7734375 81.58203125 C-121.38958862 81.0240686 -121.38958862 81.0240686 -119.9777832 80.45483398 C-118.99511475 80.05723877 -118.01244629 79.65964355 -117 79.25 C-46.03672517 51.23483716 37.03887795 47.87705955 108.6328125 75.8828125 C109.75300781 76.31980469 110.87320312 76.75679688 112.02734375 77.20703125 C114.35187744 78.11435767 116.67478829 79.02585225 118.99609375 79.94140625 C120.11371094 80.37582031 121.23132813 80.81023437 122.3828125 81.2578125 C123.38973145 81.65242676 124.39665039 82.04704102 125.43408203 82.45361328 C128.41294064 83.45019307 131.26802586 84.00701911 134.375 84.4375 C136.42143314 80.22488946 138.46602421 76.01139137 140.5090332 71.79711914 C141.20190714 70.36849819 141.89525319 68.94010609 142.58911133 67.51196289 C146.62646881 59.2011281 150.61206006 50.87747706 154.375 42.4375 C148.94795609 38.23528713 142.69080277 35.99259915 136.375 33.4375 C135.21073486 32.96256104 135.21073486 32.96256104 134.02294922 32.47802734 C121.45133428 27.38910138 108.81147176 23.35463775 95.66748047 20.02197266 C93.80607561 19.54740362 91.95081606 19.04877756 90.09765625 18.54296875 C76.73397316 14.95759036 62.89495715 12.96457557 49.25 10.75 C48.52997803 10.63076172 47.80995605 10.51152344 47.06811523 10.38867188 C36.82146859 8.76961046 26.55342987 8.27764003 16.19140625 8.234375 C15.06485626 8.22749664 13.93830627 8.22061829 12.77761841 8.21353149 C9.16421229 8.19646087 5.55094429 8.1900784 1.9375 8.1875 C0.09425644 8.18499237 0.09425644 8.18499237 -1.78622437 8.18243408 C-22.4775184 8.18074391 -42.80941523 8.68320682 -63.1340332 12.91943359 Z M-99.125 76.4375 C-100.0757692 76.75163345 -100.0757692 76.75163345 -101.04574585 77.07211304 C-110.7829322 80.30908113 -120.48052951 83.74198057 -129.625 88.4375 C-128.90942374 91.84692167 -127.64278044 94.79519544 -126.18359375 97.953125 C-125.43819336 99.56973022 -125.43819336 99.56973022 -124.67773438 101.21899414 C-124.14470703 102.36360107 -123.61167969 103.50820801 -123.0625 104.6875 C-122.51529297 105.86755615 -121.96808594 107.0476123 -121.40429688 108.26342773 C-118.26240248 115.01026664 -115.05328286 121.71171195 -111.68725586 128.34912109 C-103.33514998 144.84279325 -95.57635606 161.63857612 -87.72396851 178.37426758 C-83.02549943 188.38524429 -78.26581334 198.36353536 -73.4375 208.3125 C-68.92838149 217.60467025 -64.51298709 226.93346047 -60.1875 236.3125 C-54.04828403 249.62055999 -47.67556393 262.80807213 -41.26853943 275.98858643 C-37.10948028 284.54918084 -33.01542094 293.14076541 -28.91796875 301.73095703 C-27.62590062 304.43561476 -26.32928315 307.13804427 -25.03125 309.83984375 C-22.21708658 315.6999986 -19.41808529 321.56727248 -16.625 327.4375 C-16.31614868 328.08571716 -16.00729736 328.73393433 -15.68908691 329.40179443 C-13.62765931 333.72906885 -11.57308986 338.05950854 -9.52600098 342.39358521 C-8.8465339 343.82994465 -8.16516208 345.26540472 -7.48181152 346.69992065 C-6.5216157 348.71675027 -5.56860292 350.73682902 -4.6171875 352.7578125 C-4.06401855 353.92586426 -3.51084961 355.09391602 -2.94091797 356.29736328 C-1.78291754 359.06066598 -1.06838648 361.48735436 -0.625 364.4375 C0.365 364.4375 1.355 364.4375 2.375 364.4375 C2.63603516 363.88513672 2.89707031 363.33277344 3.16601562 362.76367188 C4.40054004 360.1540905 5.63777492 357.54580199 6.875 354.9375 C7.28492188 354.06996094 7.69484375 353.20242188 8.1171875 352.30859375 C10.7308849 346.80398861 13.41729006 341.34135604 16.15625 335.8984375 C20.70176139 326.85220942 25.04422656 317.71299801 29.375 308.5625 C30.20774591 306.80634947 31.04059278 305.05024681 31.87353516 303.29418945 C37.52195353 291.37960153 43.13650342 279.44922104 48.74130249 267.5140686 C54.71943455 254.78747921 60.80177666 242.11330322 66.91943359 229.453125 C72.60314417 217.67768168 78.22205707 205.87115313 83.828125 194.05859375 C84.22557922 193.22115128 84.62303345 192.3837088 85.03253174 191.52088928 C86.68920259 188.03012381 88.34585846 184.53935132 90.0020752 181.04837036 C95.04948614 170.41074583 100.12232604 159.78670932 105.25 149.1875 C110.73555746 137.84201527 116.05148502 126.4225372 121.33984375 114.984375 C125.29258903 106.44073943 129.32492424 97.93533337 133.375 89.4375 C116.4865133 71.21529188 72.03780849 66.28782034 48.375 62.4375 C47.33021484 62.26105957 46.28542969 62.08461914 45.20898438 61.90283203 C-2.26996565 54.03903351 -53.73974896 61.43345211 -99.125 76.4375 Z " fill="#CF0310" transform="translate(198.625,9.5625)"/>
<path d="M0 0 C1.44413773 -0.0007402 1.44413773 -0.0007402 2.91744995 -0.00149536 C20.70935116 0.04295721 38.37717395 1.42349399 56 3.875 C56.84949219 3.98392578 57.69898438 4.09285156 58.57421875 4.20507812 C64.2554969 4.98057688 69.72460427 6.20641932 75.27294922 7.64575195 C78.39548437 8.4427283 81.52656991 9.16583344 84.671875 9.8671875 C102.48194164 13.84664131 119.26838729 18.77924367 136.19970703 25.56884766 C138.29414556 26.40521267 140.39384379 27.22646762 142.49609375 28.04296875 C149.64475618 30.83422468 156.59517726 33.83222956 163.375 37.4375 C161.49449522 42.96839641 159.10892031 48.08340366 156.46630859 53.29052734 C148.46314157 69.09950096 141.06112187 85.21379385 133.53439331 101.25341797 C128.75676487 111.4313579 123.91211713 121.5738378 119 131.6875 C114.49764851 140.95882691 110.09589329 150.26288669 105.92041016 159.68652344 C103.63312568 164.81279921 101.18999863 169.84695014 98.6640625 174.859375 C94.42119675 183.28055288 90.36686784 191.78598198 86.3371582 200.31082153 C84.2543715 204.71671245 82.1658838 209.11990105 80.078125 213.5234375 C79.46420898 214.81886223 79.46420898 214.81886223 78.83789062 216.14045715 C75.53695691 223.10332248 72.21447041 230.05552177 68.875 237 C68.40191406 237.98419922 67.92882812 238.96839844 67.44140625 239.98242188 C66.52686149 241.88452127 65.61215363 243.78654224 64.69726562 245.68847656 C59.3211499 256.86555614 53.95856944 268.04843082 48.69140625 279.27734375 C48.36824936 279.96619156 48.04509247 280.65503937 47.71214294 281.36476135 C47.04378152 282.7895503 46.37542114 284.21433973 45.70706177 285.63912964 C45.20237869 286.71494797 45.20237869 286.71494797 44.6875 287.8125 C44.18124588 288.89182297 44.18124588 288.89182297 43.6647644 289.99295044 C38.2647347 301.49832312 32.75406724 312.94612649 27.18429565 324.37014771 C21.89564898 335.22343942 16.7438308 346.13303893 11.71020508 357.10693359 C8.40762415 364.29209304 4.95410273 371.38595655 1.375 378.4375 C-1.16605941 375.28935186 -2.91121597 372.04724279 -4.6640625 368.40625 C-4.9462262 367.82231979 -5.22838989 367.23838959 -5.519104 366.63676453 C-6.43405914 364.73920928 -7.34226232 362.83851712 -8.25 360.9375 C-8.88287504 359.62015041 -9.51585103 358.30284932 -10.14892578 356.9855957 C-14.08548234 348.77247108 -17.88871692 340.50818136 -21.58374023 332.18334961 C-24.00435246 326.75114331 -26.57711869 321.42234784 -29.26635742 316.11889648 C-32.69338209 309.3464626 -36.01038245 302.52155892 -39.3125 295.6875 C-39.61403992 295.0635434 -39.91557983 294.43958679 -40.22625732 293.79672241 C-45.09676948 283.70678855 -49.82945367 273.55756055 -54.51831055 263.38183594 C-58.93315889 253.84030212 -63.51144064 244.38414105 -68.125 234.9375 C-75.01706153 220.82412118 -81.70545983 206.6318258 -88.27490234 192.36523438 C-92.3945287 183.43167935 -96.5466207 174.52274488 -101 165.75 C-104.02550872 159.76100893 -106.8086001 153.6806601 -109.5625 147.5625 C-112.41392323 141.23429003 -115.29674835 134.94025061 -118.4375 128.75 C-126.9627276 111.94211466 -135.01296458 94.9016675 -142.80297852 77.7421875 C-145.67433142 71.44012036 -148.68350457 65.23153303 -151.83129883 59.0637207 C-155.41090594 51.99523601 -158.52367622 44.72561087 -161.625 37.4375 C-150.17130497 31.88419332 -138.54044152 26.91741196 -126.625 22.4375 C-125.75891113 22.11136719 -124.89282227 21.78523438 -124.00048828 21.44921875 C-84.25634999 6.76005444 -42.26458752 -0.00296163 0 0 Z M-114.53955078 21.72119141 C-116.60280871 22.42987775 -118.6732649 23.11286026 -120.74609375 23.79296875 C-133.02736421 27.89979075 -144.810129 33.15894833 -156.625 38.4375 C-155.99355144 42.65025481 -154.54987716 45.98284595 -152.66796875 49.79296875 C-152.36893646 50.4035614 -152.06990417 51.01415405 -151.7618103 51.64324951 C-151.11844489 52.95604679 -150.47259209 54.26762745 -149.82449341 55.57809448 C-148.10225657 59.0615718 -146.39886069 62.55422942 -144.6953125 66.046875 C-144.35023148 66.7535582 -144.00515045 67.46024139 -143.64961243 68.18833923 C-139.91704842 75.85320698 -136.35563791 83.59382744 -132.8347168 91.3581543 C-130.25258482 97.02217044 -127.55847567 102.61372995 -124.7578125 108.171875 C-121.01537879 115.59971001 -117.44356967 123.09832114 -113.92520142 130.63446045 C-112.20467115 134.31963267 -110.47798826 138.00191368 -108.75 141.68359375 C-108.40362991 142.42160217 -108.05725983 143.1596106 -107.70039368 143.91998291 C-105.45243842 148.7008571 -103.17704712 153.46760366 -100.875 158.22265625 C-100.58086716 158.83049454 -100.28673431 159.43833282 -99.98368835 160.06459045 C-98.61899065 162.88192683 -97.24954097 165.6968429 -95.87426758 168.5090332 C-92.96280322 174.50152913 -90.29770835 180.54540543 -87.77075195 186.70947266 C-86.26877706 190.2856643 -84.58435501 193.7390162 -82.8125 197.1875 C-82.473396 197.85813477 -82.13429199 198.52876953 -81.78491211 199.21972656 C-80.40582546 201.94672327 -79.0173734 204.66889394 -77.62792969 207.390625 C-73.5860603 215.32123213 -69.74219263 223.30325794 -66.125 231.4375 C-63.49259751 237.35608608 -60.80568685 243.22288547 -57.875 249 C-49.59375444 265.32927632 -41.64802332 281.84380467 -34.22314453 298.58056641 C-31.91493446 303.74576999 -29.45278634 308.81968717 -26.90625 313.87109375 C-22.25128462 323.10721602 -17.84196205 332.45497415 -13.4375 341.8125 C-6.68636346 356.2003703 -6.68636346 356.2003703 0.375 370.4375 C3.47634716 367.8139969 4.80474137 364.76589525 6.484375 361.109375 C6.77427307 360.4833136 7.06417114 359.8572522 7.362854 359.21221924 C8.28980153 357.2067842 9.20758307 355.19731011 10.125 353.1875 C10.72594778 351.88252924 11.32750514 350.57783902 11.9296875 349.2734375 C13.13799965 346.65417395 14.34348649 344.03363848 15.546875 341.41210938 C17.39033933 337.39995084 19.24586209 333.39350843 21.109375 329.390625 C21.92486816 327.63733887 21.92486816 327.63733887 22.75683594 325.84863281 C24.4157397 322.35161963 26.13249171 318.89350447 27.875 315.4375 C37.57065652 296.16574975 46.90828724 276.71217853 55.8125 257.0625 C62.32828643 242.71950894 69.1860667 228.55530189 76.11376953 214.40771484 C80.45550057 205.53697589 84.7721734 196.65985596 88.92521667 187.69898987 C91.77421004 181.55594098 94.73080684 175.46670918 97.6875 169.375 C101.79755424 160.88065097 105.8178297 152.35652339 109.6875 143.75 C112.70220231 137.05026466 115.81463407 130.42924282 119.13720703 123.87719727 C127.70080463 106.95789715 135.73801939 89.77126482 143.68115234 72.55395508 C146.2204321 67.05451832 148.77981947 61.56796625 151.4140625 56.11328125 C151.88368408 55.13987793 152.35330566 54.16647461 152.8371582 53.16357422 C153.71337312 51.35411359 154.59443928 49.54699108 155.48120117 47.74267578 C156.05704956 46.55327393 156.05704956 46.55327393 156.64453125 45.33984375 C156.98073486 44.65398193 157.31693848 43.96812012 157.66333008 43.26147461 C158.55674353 41.29801641 158.55674353 41.29801641 158.375 38.4375 C152.87319147 36.10411727 147.36662295 33.78264022 141.85351562 31.47607422 C140.3536802 30.84759708 138.8547181 30.21702236 137.35742188 29.58251953 C59.36962765 -3.4171701 -34.71290164 -5.75411251 -114.53955078 21.72119141 Z " fill="#291919" transform="translate(198.625,9.5625)"/>
<path d="M0 0 C1.30384644 0.01027222 1.30384644 0.01027222 2.6340332 0.02075195 C15.41440416 0.3166811 28.03214061 2.37086458 40.625 4.4375 C42.22069824 4.69442627 42.22069824 4.69442627 43.84863281 4.95654297 C68.33066467 9.01608345 97.01965934 15.83409797 118.625 28.4375 C118.955 29.0975 119.285 29.7575 119.625 30.4375 C118.74467559 32.68813707 117.80115767 34.81004083 116.75 36.98046875 C116.43432571 37.6478154 116.11865143 38.31516205 115.79341125 39.00273132 C114.74492494 41.21388294 113.68505703 43.41937509 112.625 45.625 C111.89026304 47.16849418 111.15613943 48.71228047 110.42260742 50.25634766 C105.3358675 60.944546 100.17519851 71.59747245 94.99899292 82.24258423 C90.08223307 92.35439903 85.31334966 102.52717799 80.60864258 112.73974609 C76.06201071 122.57452654 71.34054797 132.31857501 66.5914917 142.0567627 C62.06322546 151.34695683 57.62836044 160.67109961 53.3125 170.0625 C48.0819359 181.43732167 42.63109488 192.69417955 37.125 203.9375 C31.03849977 216.36629603 25.05984739 228.82851968 19.27661133 241.40161133 C14.8124468 251.09026906 10.18758766 260.69592053 5.53344727 270.29418945 C1.1622996 279.31057495 -3.14271503 288.35517418 -7.375 297.4375 C-8.365 297.4375 -9.355 297.4375 -10.375 297.4375 C-9.08909341 293.35338822 -7.57163831 289.56187595 -5.6875 285.71875 C-5.15858154 284.63247314 -4.62966309 283.54619629 -4.0847168 282.42700195 C-3.23840698 280.69969849 -3.23840698 280.69969849 -2.375 278.9375 C-1.1906519 276.5055281 -0.01028234 274.07164995 1.16796875 271.63671875 C1.4628569 271.02732956 1.75774506 270.41794037 2.06156921 269.79008484 C4.78047284 264.15150325 7.37433571 258.46064272 9.9375 252.75 C12.99590529 245.94943168 16.16302434 239.23325354 19.53442383 232.58276367 C27.55933719 216.72828153 34.98103415 200.56812119 42.53427124 184.48526001 C48.66501238 171.4349481 54.89606081 158.43554922 61.16943359 145.453125 C69.2091562 128.79652425 77.13218741 112.08350658 85.05712891 95.37207031 C88.90299515 87.26370311 92.75452161 79.15826918 96.6340332 71.06593323 C98.3807164 67.42174489 100.12358533 63.7757382 101.86621094 60.12960815 C102.69699589 58.39409983 103.52964042 56.6594803 104.36425781 54.92581177 C105.52890185 52.50619894 106.68695492 50.08352924 107.84375 47.66015625 C108.18353882 46.95866455 108.52332764 46.25717285 108.87341309 45.53442383 C111.20830563 40.62034771 113.00718282 35.63016671 114.625 30.4375 C93.95655581 22.02909608 72.96131286 14.03418562 50.96728516 9.88183594 C49.34486803 9.57406033 47.7248395 9.25352304 46.10693359 8.92285156 C27.08989922 5.05865167 7.96187367 4.23190062 -11.375 3.4375 C-8.08602415 -0.37102041 -4.77160478 -0.05881576 0 0 Z " fill="#2F0E0F" transform="translate(212.375,68.5625)"/>
<path d="M0 0 C5.86191589 0.40427006 9.2945653 1.19083858 14 5 C17.14293016 9.71439524 16.54739017 14.47993289 16 20 C14.79466997 24.54225355 13.02569994 28.76835159 11.06640625 33.03125 C9.29098921 36.90488717 8.36523585 39.73801216 9 44 C11.2758823 48.22481746 11.2758823 48.22481746 15 51 C14.525625 50.29875 14.05125 49.5975 13.5625 48.875 C11.85274499 45.72905079 11.14897043 43.57529026 11 40 C12.27677321 36.94993067 13.65460026 35.30476447 16.125 33.125 C20.21921474 31.52291597 23.76815424 31.99313866 28 33 C29.35357388 33.62454781 30.69437741 34.28057531 32 35 C32 35.33 32 35.66 32 36 C31.40832031 36.01417969 30.81664062 36.02835938 30.20703125 36.04296875 C25.96894122 36.29877516 23.48467555 36.68011414 19.875 39.0625 C17.81687522 42.28689549 17.66548609 44.07171444 18.21484375 47.83984375 C19.57911038 51.59327383 21.2096387 54.92325981 24.73217773 57.04174805 C26.71459621 57.91730581 28.70212038 58.66656527 30.75 59.375 C31.44738281 59.63410156 32.14476562 59.89320313 32.86328125 60.16015625 C34.5691004 60.79107566 36.28375041 61.39803186 38 62 C32.92755929 63.69081357 28.03740106 61.695152 22.9375 60.5 C21.84244141 60.26796875 20.74738281 60.0359375 19.61914062 59.796875 C10.33013741 57.62815001 2.21787828 53.9619072 -3.0625 45.6875 C-6.3528711 38.81505823 -6.72860139 31.69962875 -4.8828125 24.35546875 C-3.81062637 21.49472435 -2.35759802 19.00885313 -0.8125 16.375 C1.29697316 12.71414246 2.00619411 11.39022912 1.9375 7.0625 C1.628125 6.051875 1.31875 5.04125 1 4 C0.7215625 2.7934375 0.7215625 2.7934375 0.4375 1.5625 C0.293125 1.046875 0.14875 0.53125 0 0 Z " fill="#F6F5F5" transform="translate(154,127)"/>
<path d="M0 0 C-0.33 0.99 -0.66 1.98 -1 3 C-1.84510472 9.4439235 -0.59903923 13.25231568 2.5 18.875 C6.35119763 25.98020682 7.58486556 31.65316407 5.2578125 39.50390625 C2.11765354 47.38025537 -3.51028508 52.29150038 -11 56 C-19.80849008 59.42421196 -28.65320324 60.93499767 -38 62 C-35.44196603 59.44196603 -33.11500563 58.94982633 -29.6875 57.8125 C-23.58119222 55.50912505 -20.76745798 53.94490973 -18 48 C-17.23919775 43.58734697 -17.43109358 41.84418373 -19.9375 38.125 C-23.92198267 35.36025692 -27.24095282 35.11405124 -32 35 C-31 33 -31 33 -28 32 C-22.78402898 31.50747023 -18.44824986 31.13105008 -13.875 33.875 C-11.66824718 36.37598653 -11.06446901 37.43267271 -10.6875 40.75 C-11.07433301 44.7730633 -12.61767558 46.79875156 -15 50 C-15 50.33 -15 50.66 -15 51 C-10.33381575 46.64007208 -10.33381575 46.64007208 -8.5625 40.75 C-8.58707598 34.07762043 -12.27886298 27.93222945 -15 22 C-16.81563534 16.55309398 -16.932322 10.35533979 -14.8125 5 C-10.21935547 -0.06829742 -6.52244587 -0.33164979 0 0 Z " fill="#FDF9F9" transform="translate(245,128)"/>
<path d="M0 0 C4.13581538 0.01262844 8.15067267 0.08535617 12.24609375 0.6953125 C15.86515737 1.11753659 18.44768845 0.74992646 21.99609375 0.1328125 C23.99718653 0.45952153 25.99725506 0.79258464 27.99609375 1.1328125 C29.66451909 0.80839646 31.33089856 0.47342061 32.99609375 0.1328125 C36.33689127 -0.05778768 39.66514038 -0.21502157 42.99609375 0.1328125 C44.99609375 2.1328125 44.99609375 2.1328125 44.99609375 4.9453125 C43.65906059 9.20710571 41.59461997 10.57232269 37.99609375 13.1328125 C37.23296875 13.6896875 36.46984375 14.2465625 35.68359375 14.8203125 C26.94335811 19.08879967 17.59186724 19.14533169 8.46484375 16.1875 C3.26506908 13.96607728 -0.87283317 10.82942212 -4.00390625 6.1328125 C-3.29984562 0.21870322 -3.29984562 0.21870322 0 0 Z " fill="#FAF6F7" transform="translate(179.00390625,167.8671875)"/>
<path d="M0 0 C3.3 0.33 6.6 0.66 10 1 C10.33 3.64 10.66 6.28 11 9 C11.66 7.02 12.32 5.04 13 3 C16.86986958 2.92557943 20.2735915 2.95297814 24 4 C22.51659041 14.03482957 20.79340033 24.01673818 19 34 C15.535 33.505 15.535 33.505 12 33 C12.66 28.05 13.32 23.1 14 18 C12.68 22.29 11.36 26.58 10 31 C8.35 31.33 6.7 31.66 5 32 C4.67 27.38 4.34 22.76 4 18 C3.34 22.29 2.68 26.58 2 31 C-0.31 30.67 -2.62 30.34 -5 30 C-4.57631992 23.2357284 -3.67259549 16.60668095 -2.5 9.9375 C-2.36940186 9.18734619 -2.23880371 8.43719238 -2.10424805 7.66430664 C-1.1289621 2.25792421 -1.1289621 2.25792421 0 0 Z " fill="#F6C403" transform="translate(252,30)"/>
<path d="M0 0 C0.99 1.485 0.99 1.485 2 3 C1.07902478 5.53379743 0.08668465 7.75525627 -1.13671875 10.140625 C-1.48685028 10.85039993 -1.83698181 11.56017487 -2.19772339 12.29145813 C-3.34845526 14.6174321 -4.51805636 16.93338585 -5.6875 19.25 C-6.48775973 20.86114717 -7.28649924 22.4730503 -8.08374023 24.08569336 C-9.66638435 27.28442583 -11.25488218 30.48012724 -12.84863281 33.67333984 C-15.47497437 38.9436005 -18.03287536 44.24520709 -20.5625 49.5625 C-20.9754834 50.42762207 -21.3884668 51.29274414 -21.81396484 52.18408203 C-26.00790505 60.9845589 -30.15974034 69.80503735 -34.3125 78.625 C-34.65161407 79.34511261 -34.99072815 80.06522522 -35.34011841 80.80715942 C-38.55176813 87.62968172 -41.75514201 94.45454813 -44.890625 101.3125 C-48.92359928 110.07171123 -53.19620999 118.71538935 -57.4375 127.375 C-62.76155128 138.24628513 -68.03643162 149.13208078 -73.1244812 160.11590576 C-76.07513218 166.46563179 -79.07425914 172.79290534 -82.0625 179.125 C-82.61067383 180.28721069 -82.61067383 180.28721069 -83.16992188 181.47290039 C-88.2208721 192.17771974 -93.32924293 202.85259086 -98.5 213.5 C-102.79699632 222.34917015 -106.96152108 231.23759439 -110.94677734 240.23120117 C-113.50815139 245.98615664 -116.25213809 251.62603214 -119.10498047 257.24145508 C-122.57458536 264.08150823 -125.79643627 271.0322489 -129 278 C-129.33 277.34 -129.66 276.68 -130 276 C-130.66 275.67 -131.32 275.34 -132 275 C-131.34 275 -130.68 275 -130 275 C-129.74130127 274.15969238 -129.48260254 273.31938477 -129.21606445 272.45361328 C-127.90860906 268.74045047 -126.28859228 265.26176112 -124.54296875 261.7421875 C-124.20392014 261.05019257 -123.86487152 260.35819763 -123.51554871 259.64523315 C-122.78786223 258.16018529 -122.05865499 256.67588182 -121.32806396 255.19226074 C-119.3825115 251.23952113 -117.45012686 247.28037466 -115.51953125 243.3203125 C-115.13124146 242.52391357 -114.74295166 241.72751465 -114.34289551 240.90698242 C-110.93232561 233.89438719 -107.63348283 226.83466532 -104.375 219.75 C-99.81349309 209.84298836 -95.13825762 199.99855673 -90.375 190.1875 C-90.05744751 189.53321014 -89.73989502 188.87892029 -89.41271973 188.20480347 C-88.15985748 185.62382875 -86.90655 183.0430709 -85.65264893 180.46260071 C-79.38565177 167.56431219 -73.14653208 154.66335226 -67.3125 141.5625 C-64.45230174 135.13983935 -61.46822041 128.81251145 -58.2890625 122.54223633 C-50.45903944 107.06924917 -43.06830491 91.37382197 -35.8125 75.625 C-30.28109215 63.62048626 -24.51707874 51.73805676 -18.70846558 39.86569214 C-12.25651836 26.67138429 -6.0064641 13.40417594 0 0 Z " fill="#C00612" transform="translate(331,99)"/>
<path d="M0 0 C13 0 13 0 18 3 C18.48828125 5.26171875 18.48828125 5.26171875 18.3125 7.6875 C18.24482422 8.89986328 18.24482422 8.89986328 18.17578125 10.13671875 C18.11777344 10.75160156 18.05976563 11.36648437 18 12 C17.01 12.33 16.02 12.66 15 13 C15 13.66 15 14.32 15 15 C16.32 15.66 17.64 16.32 19 17 C19.10867302 18.58179615 19.18589827 20.16577153 19.25 21.75 C19.29640625 22.63171875 19.3428125 23.5134375 19.390625 24.421875 C19 27 19 27 15 31 C10.05 31 5.1 31 0 31 C0 20.77 0 10.54 0 0 Z " fill="#F0BF03" transform="translate(193,26)"/>
<path d="M0 0 C6.2673965 5.08709584 7.8433988 13.76636322 9.0625 21.4375 C9.28818185 25.03683618 9.09601897 25.84316902 7.125 29.0625 C3.26860894 31.45346246 -0.43555157 32.72671898 -5 32 C-11.40142861 27.35399057 -12.15040512 17.76637126 -13.4609375 10.4140625 C-13.625 8.375 -13.625 8.375 -13 5 C-9.08176046 0.41279273 -5.98365617 -0.99727603 0 0 Z " fill="#F3C303" transform="translate(114,37)"/>
<path d="M0 0 C6.33985603 0.61933467 11.24771672 1.41963395 16 6 C16.85835136 9.74553322 16.29892484 11.38856282 14.625 14.8125 C13 17 13 17 11 18 C11.33 18.33 11.66 18.66 12 19 C11.94921875 20.92578125 11.94921875 20.92578125 11.6875 23.3125 C11.56955078 24.48232422 11.56955078 24.48232422 11.44921875 25.67578125 C10.98413721 28.08207271 10.19341444 29.87133832 9 32 C2.54107286 32.40368295 -2.06108578 31.5915262 -8 29 C-7.43615943 22.26567877 -5.65441874 16.36541026 -3.4375 10 C-3.10814453 9.03449219 -2.77878906 8.06898437 -2.43945312 7.07421875 C-1.63313798 4.71370194 -0.81987837 2.35583283 0 0 Z " fill="#F6C503" transform="translate(303,42)"/>
<path d="M0 0 C4.56944444 2.13888889 4.56944444 2.13888889 6 5 C6.35050649 10.98457382 5.51385766 15.71903857 3.625 21.375 C3.29242188 22.44041016 3.29242188 22.44041016 2.953125 23.52734375 C1.27715774 28.72284226 1.27715774 28.72284226 -1 31 C-5.00307697 31.73684957 -9.20828295 32.05486372 -12.8046875 29.9375 C-15.40685774 27.23241908 -15.99656812 25.19218555 -16.0625 21.5 C-15.75460003 19.98982397 -15.39085374 18.49086129 -15 17 C-14.71253906 15.83855469 -14.42507813 14.67710938 -14.12890625 13.48046875 C-10.16247247 -1.50555148 -10.16247247 -1.50555148 0 0 Z " fill="#F5C403" transform="translate(291,37)"/>
<path d="M0 0 C5.43059731 -0.19054727 9.83451546 0.03711588 15 2 C17.45410358 5.68115537 17.23287843 7.65293598 17 12 C16 15 16 15 14 16 C14.66 16.66 15.32 17.32 16 18 C16.1953125 21.2578125 16.1953125 21.2578125 16.125 25.125 C16.10695312 26.40632813 16.08890625 27.68765625 16.0703125 29.0078125 C16.04710937 29.99523437 16.02390625 30.98265625 16 32 C13.36 32 10.72 32 8 32 C8 27.38 8 22.76 8 18 C7.34 17.67 6.68 17.34 6 17 C6 21.62 6 26.24 6 31 C3.36 31 0.72 31 -2 31 C-2.34306085 8.05304107 -2.34306085 8.05304107 0 0 Z " fill="#F2C103" transform="translate(217,26)"/>
<path d="M0 0 C1.56427734 -0.03867187 1.56427734 -0.03867187 3.16015625 -0.078125 C5.9375 0.25 5.9375 0.25 7.79296875 1.4765625 C9.2613797 3.75184773 9.27510765 5.18544525 9.1875 7.875 C9.17203125 8.67164063 9.1565625 9.46828125 9.140625 10.2890625 C8.9375 12.25 8.9375 12.25 7.9375 13.25 C8.576875 13.683125 9.21625 14.11625 9.875 14.5625 C13.0122885 18.65048198 12.97932047 23.18972304 12.9375 28.25 C11.9375 29.25 11.9375 29.25 8.875 29.3125 C7.905625 29.291875 6.93625 29.27125 5.9375 29.25 C4.79985649 24.98383684 3.9375 21.68513689 3.9375 17.25 C3.2775 17.25 2.6175 17.25 1.9375 17.25 C2.02128906 18.17683594 2.10507813 19.10367188 2.19140625 20.05859375 C2.29324219 21.25613281 2.39507812 22.45367187 2.5 23.6875 C2.60441406 24.88246094 2.70882812 26.07742187 2.81640625 27.30859375 C2.85636719 28.27925781 2.89632812 29.24992187 2.9375 30.25 C1.9375 31.25 1.9375 31.25 -1.125 31.3125 C-2.094375 31.291875 -3.06375 31.27125 -4.0625 31.25 C-6.34258137 21.28847947 -8.55523734 11.36452574 -10.0625 1.25 C-6.68202582 0.23993061 -3.52102944 0.05235732 0 0 Z " fill="#EDBE03" transform="translate(131.0625,32.75)"/>
<path d="M0 0 C-0.03222656 0.85980469 -0.06445312 1.71960937 -0.09765625 2.60546875 C0.00727799 13.29710212 3.36530491 18.93113849 10 27 C7.4345406 29.5654594 5.52313332 29.54046087 2 30 C0.35 27.36 -1.3 24.72 -3 22 C-2.67 22.9075 -2.34 23.815 -2 24.75 C-1 28 -1 28 -1 32 C-3.90600261 33.25664978 -5.79604584 34 -9 34 C-9.18175781 33.31035156 -9.36351563 32.62070313 -9.55078125 31.91015625 C-11.4741463 24.71973 -13.67629063 17.69245245 -16.1875 10.6875 C-17 8 -17 8 -17 4 C-13.535 3.505 -13.535 3.505 -10 3 C-9.34 4.98 -8.68 6.96 -8 9 C-7.87625 7.700625 -7.7525 6.40125 -7.625 5.0625 C-7.4140625 2.84765625 -7.4140625 2.84765625 -7 1 C-4.53721199 -0.231394 -2.7204945 -0.07159196 0 0 Z " fill="#F3C303" transform="translate(96,42)"/>
<path d="M0 0 C1.625 1.125 1.625 1.125 2.625 3.125 C2.664992 5.12460012 2.66846799 7.12547242 2.625 9.125 C0.315 9.125 -1.995 9.125 -4.375 9.125 C-4.375 7.805 -4.375 6.485 -4.375 5.125 C-5.365 5.125 -6.355 5.125 -7.375 5.125 C-6.05177458 9.38390585 -4.61650084 11.03498425 -0.8125 13.3125 C3.53774397 15.95048794 3.53774397 15.95048794 4.625 18.125 C5.23207493 22.61735451 5.48337086 25.98973532 2.6875 29.6875 C-1.42998789 31.6201984 -4.90673519 32.08367622 -9.375 31.125 C-11.9375 29 -11.9375 29 -13.375 26.125 C-13.625 22.8125 -13.625 22.8125 -13.375 20.125 C-11.065 20.125 -8.755 20.125 -6.375 20.125 C-6.25125 20.929375 -6.1275 21.73375 -6 22.5625 C-5.79375 23.408125 -5.5875 24.25375 -5.375 25.125 C-4.715 25.455 -4.055 25.785 -3.375 26.125 C-4.08256967 21.21546301 -4.08256967 21.21546301 -7.25390625 17.65234375 C-8.67992727 16.81815972 -10.12804132 16.02036395 -11.59765625 15.265625 C-13.375 14.125 -13.375 14.125 -14.375 11.125 C-14.76306251 8.0648499 -14.86939271 5.1765964 -14.375 2.125 C-10.42661948 -1.82338052 -5.09782073 -1.87814448 0 0 Z " fill="#F2C203" transform="translate(179.375,26.875)"/>
<path d="M0 0 C1.16216154 3.05482461 1.10513524 6.00972162 1.0625 9.25 C1.05347656 10.14203125 1.04445312 11.0340625 1.03515625 11.953125 C1.02355469 12.62859375 1.01195312 13.3040625 1 14 C-2.08809695 15.76462683 -3.23312136 16 -7 16 C-6.835 16.66 -6.67 17.32 -6.5 18 C-5.87816701 21.73099794 -5.93591074 25.21873378 -6 29 C-8.64 29 -11.28 29 -14 29 C-14.50488515 24.93809157 -15.0030519 20.87538649 -15.5 16.8125 C-15.64308594 15.66201172 -15.78617188 14.51152344 -15.93359375 13.32617188 C-16.13662109 11.65844727 -16.13662109 11.65844727 -16.34375 9.95703125 C-16.46943359 8.93585205 -16.59511719 7.91467285 -16.72460938 6.86254883 C-16.97897068 4.21858939 -17.05115721 1.6537801 -17 -1 C-11.25349823 -2.4829682 -5.04214306 -3.36142871 0 0 Z " fill="#F6C503" transform="translate(161,31)"/>
<path d="M0 0 C-0.86431641 0.64582031 -0.86431641 0.64582031 -1.74609375 1.3046875 C-3.18213683 2.38483082 -4.61249836 3.4725995 -6.03515625 4.5703125 C-7.03869141 5.33988281 -7.03869141 5.33988281 -8.0625 6.125 C-8.73410156 6.64320313 -9.40570313 7.16140625 -10.09765625 7.6953125 C-16.69542343 12.22026987 -29.01675873 10.73668548 -36.6328125 9.328125 C-39.13094679 8.63673535 -41.5697104 7.89931421 -44 7 C-44 6.67 -44 6.34 -44 6 C-43.00484375 5.91878906 -42.0096875 5.83757812 -40.984375 5.75390625 C-36.51641465 5.11739029 -33.13637958 3.12494946 -29.25 0.9375 C-18.82183956 -4.56992483 -11.01181514 -4.01298252 0 0 Z " fill="#F3F3F3" transform="translate(174,188)"/>
<path d="M0 0 C7.35734513 -0.62331517 12.5205578 1.95140559 18.77368164 5.47216797 C23.1185322 7.89413778 26.54575968 9.00035932 31.51953125 9.40625 C26.44369692 14.48208433 16.54709865 13.64949673 9.70703125 13.78125 C8.63183228 13.82016357 8.63183228 13.82016357 7.53491211 13.85986328 C2.32038745 13.87807254 -0.41669181 12.56760405 -4.48046875 9.40625 C-5.93427786 8.48242482 -7.39196168 7.5646337 -8.85546875 6.65625 C-9.54382813 6.22828125 -10.2321875 5.8003125 -10.94140625 5.359375 C-11.44929687 5.04484375 -11.9571875 4.7303125 -12.48046875 4.40625 C-11.48046875 2.40625 -11.48046875 2.40625 -9.80078125 1.7734375 C-6.55172597 1.04500162 -3.28439057 0.53791594 0 0 Z " fill="#FCF3F3" transform="translate(237.48046875,184.59375)"/>
<path d="M0 0 C-3.37097383 1.49821059 -5.20442119 2 -9 2 C-9.33 2.66 -9.66 3.32 -10 4 C-12.29541915 4.67788806 -14.53196528 5.23302541 -16.8671875 5.734375 C-18.31601831 6.06135807 -19.76482938 6.38842857 -21.21362305 6.71557617 C-21.9752475 6.88431244 -22.73687195 7.05304871 -23.52157593 7.22689819 C-36.19458798 10.04376217 -48.68601439 13.07295342 -60.97265625 17.30322266 C-63.13274365 18.04562264 -65.29956553 18.76510944 -67.46875 19.48046875 C-70.98358759 20.64067937 -74.493301 21.81537522 -78 23 C-78.99 22.01 -79.98 21.02 -81 20 C-62.6036899 13.38515658 -44.22889448 7.6364508 -25.1875 3.1875 C-24.53348206 3.03434326 -23.87946411 2.88118652 -23.20562744 2.72338867 C-4.52529244 -1.62910528 -4.52529244 -1.62910528 0 0 Z " fill="#291F1F" transform="translate(145,15)"/>
<path d="M0 0 C2.64 0.33 5.28 0.66 8 1 C7.43657596 11.00976758 6.8168046 21.00717773 6 31 C3.36 31 0.72 31 -2 31 C-2.42965893 20.59270595 -1.13272754 10.32602516 0 0 Z " fill="#F1C103" transform="translate(238,28)"/>
<path d="M0 0 C3.00197464 1.80118478 4.45166366 2.90332732 6 6 C6.60601323 11.33291642 5.13289675 13.76137498 2 18 C1.690625 18.721875 1.38125 19.44375 1.0625 20.1875 C-0.42743223 22.7291491 -2.43725017 23.6511843 -5 25 C-4.67 25.66 -4.34 26.32 -4 27 C-6.26860837 27.5304408 -8.53998489 28.04905434 -10.8125 28.5625 C-12.70935547 28.99755859 -12.70935547 28.99755859 -14.64453125 29.44140625 C-18 30 -18 30 -21 29 C-19.97519531 28.64808594 -18.95039063 28.29617187 -17.89453125 27.93359375 C-9.3238913 25.15622208 -9.3238913 25.15622208 -2.5625 19.5625 C-0.80465284 15.55460848 -0.20133841 13.31277257 -1 9 C-3.0924055 5.89514022 -4.62775336 4.30978812 -8.3359375 3.47265625 C-10.56515115 3.21598023 -12.75739476 3.05374435 -15 3 C-12.61806835 -1.7638633 -4.58447255 -0.50268339 0 0 Z " fill="#FBEEEF" transform="translate(228,160)"/>
<path d="M0 0 C1.11375 0.495 1.11375 0.495 2.25 1 C-1.49833681 5.06069821 -3.55162764 6.84144529 -9.04003906 7.11352539 C-10.2654541 7.10567017 -10.2654541 7.10567017 -11.515625 7.09765625 C-12.40507812 7.09443359 -13.29453125 7.09121094 -14.2109375 7.08789062 C-15.13132813 7.07951172 -16.05171875 7.07113281 -17 7.0625 C-18.40378906 7.05573242 -18.40378906 7.05573242 -19.8359375 7.04882812 C-22.14069041 7.03706918 -24.44531227 7.02063426 -26.75 7 C-25.97785156 6.38640625 -25.20570313 5.7728125 -24.41015625 5.140625 C-22.63826147 3.71478309 -20.89653284 2.2506142 -19.1875 0.75 C-13.10422344 -2.3469408 -6.48320408 -1.72885442 0 0 Z " fill="#F6F5F5" transform="translate(193.75,193)"/>
<path d="M0 0 C3.76264857 1.8765372 6.93869035 4.1183609 10 7 C10 7.33 10 7.66 10 8 C6.97861433 8.08149592 3.95946095 8.14073421 0.9375 8.1875 C0.08994141 8.21263672 -0.75761719 8.23777344 -1.63085938 8.26367188 C-7.21231648 8.32832196 -11.09395128 7.73692445 -16 5 C-16.66 4.01 -17.32 3.02 -18 2 C-12.08305944 -0.70144975 -6.39705762 -1.00461875 0 0 Z " fill="#FCF5F6" transform="translate(221,192)"/>
<path d="M0 0 C0.33 0 0.66 0 1 0 C1.33 28.38 1.66 56.76 2 86 C3.65 86.33 5.3 86.66 7 87 C6.401875 87.28875 5.80375 87.5775 5.1875 87.875 C2.80672208 89.04742026 2.80672208 89.04742026 0 91 C-1.75 90.75 -1.75 90.75 -4 90 C-5.2375 89.649375 -6.475 89.29875 -7.75 88.9375 C-8.8225 88.628125 -9.895 88.31875 -11 88 C-10.01 87.01 -10.01 87.01 -9 86 C-5.04 86.495 -5.04 86.495 -1 87 C-0.67 58.29 -0.34 29.58 0 0 Z " fill="#D80313" transform="translate(201,72)"/>
<path d="M0 0 C6.6 0 13.2 0 20 0 C19 2 19 2 15.75 3.125 C9.90962021 4.4891763 3.957937 4.16347998 -2 4 C-1.34 2.68 -0.68 1.36 0 0 Z " fill="#312625" transform="translate(174,10)"/>
<path d="M0 0 C0.77762695 0.0093457 1.55525391 0.01869141 2.35644531 0.02832031 C3.21753906 0.03347656 4.07863281 0.03863281 4.96582031 0.04394531 C5.86300781 0.06457031 6.76019531 0.08519531 7.68457031 0.10644531 C9.00714844 0.11417969 9.00714844 0.11417969 10.35644531 0.12207031 C15.30702578 0.18100579 20.05357815 0.52961057 24.93457031 1.35644531 C24.93457031 2.34644531 24.93457031 3.33644531 24.93457031 4.35644531 C10.08457031 3.86144531 10.08457031 3.86144531 -5.06542969 3.35644531 C-2.06542969 0.35644531 -2.06542969 0.35644531 0 0 Z " fill="#470C0F" transform="translate(206.0654296875,68.6435546875)"/>
<path d="M0 0 C0.66 0 1.32 0 2 0 C1.42351925 7.35012956 -0.71046164 14.01424576 -3 21 C-3.66 21 -4.32 21 -5 21 C-3.57142857 3.57142857 -3.57142857 3.57142857 0 0 Z " fill="#46350D" transform="translate(288,42)"/>
<path d="M0 0 C0.99 0.33 1.98 0.66 3 1 C3.88951625 3.46625074 4.57804715 5.77746073 5.1875 8.3125 C5.36474609 8.98990234 5.54199219 9.66730469 5.72460938 10.36523438 C6.57190521 13.71188934 7 16.52452235 7 20 C6.01 19.67 5.02 19.34 4 19 C3.1128708 16.34751335 2.41955673 13.84140172 1.8125 11.125 C1.63525391 10.39152344 1.45800781 9.65804687 1.27539062 8.90234375 C0.56128761 5.87498812 0 3.11987067 0 0 Z " fill="#2D230E" transform="translate(108,43)"/>
<path d="M0 0 C0.33 0.66 0.66 1.32 1 2 C-10.52164009 5.25968109 -10.52164009 5.25968109 -16 6 C-15.67 5.01 -15.34 4.02 -15 3 C-13.02 2.67 -11.04 2.34 -9 2 C-9 1.34 -9 0.68 -9 0 C-5.68955197 -1.10348268 -3.34493684 -0.99444068 0 0 Z " fill="#312221" transform="translate(109,23)"/>
<path d="M0 0 C0.33 0.66 0.66 1.32 1 2 C1.66 2 2.32 2 3 2 C2.938125 3.03125 2.87625 4.0625 2.8125 5.125 C3.0704947 10.4568905 5.09151187 13.63726781 8 18 C3.61144323 16.27592413 1.08513063 13.17026127 -1 9 C-0.91348369 7.45386986 -0.75997364 5.91090613 -0.5625 4.375 C-0.46066406 3.55773437 -0.35882813 2.74046875 -0.25390625 1.8984375 C-0.17011719 1.27195313 -0.08632812 0.64546875 0 0 Z " fill="#403B3B" transform="translate(163,162)"/>
<path d="M0 0 C1.61648437 0.04060547 1.61648437 0.04060547 3.265625 0.08203125 C4.08546875 0.11683594 4.9053125 0.15164063 5.75 0.1875 C5.75 0.8475 5.75 1.5075 5.75 2.1875 C6.74 2.5175 7.73 2.8475 8.75 3.1875 C2.48 3.1875 -3.79 3.1875 -10.25 3.1875 C-5.93072606 -0.05195545 -5.09798489 -0.16623864 0 0 Z " fill="#191111" transform="translate(200.25,9.8125)"/>
<path d="M0 0 C1.94480963 0.23074013 3.88953427 0.46926407 5.82421875 0.7734375 C9.03854047 1.10814245 11.83390827 0.5936422 15 0 C15.33 0.66 15.66 1.32 16 2 C9.63598326 5.05962343 9.63598326 5.05962343 7 4.8125 C6.34 4.544375 5.68 4.27625 5 4 C3.7625 3.649375 2.525 3.29875 1.25 2.9375 C-0.35875 2.4734375 -0.35875 2.4734375 -2 2 C-1.34 1.34 -0.68 0.68 0 0 Z " fill="#DBC6C7" transform="translate(192,158)"/>
<path d="M0 0 C0.33 0.66 0.66 1.32 1 2 C-1.60356241 2.50333542 -4.20776651 3.00279378 -6.8125 3.5 C-7.55048828 3.64308594 -8.28847656 3.78617188 -9.04882812 3.93359375 C-12.07794391 4.50926281 -14.909196 5 -18 5 C-17.67 4.01 -17.34 3.02 -17 2 C-16.2575 2.04125 -15.515 2.0825 -14.75 2.125 C-12.05706635 2.20597295 -12.05706635 2.20597295 -10.1875 1 C-6.80373281 -0.546865 -3.69542851 -0.12318095 0 0 Z " fill="#1B1211" transform="translate(153,14)"/>
<path d="M0 0 C-0.99 0.495 -0.99 0.495 -2 1 C-2 2.32 -2 3.64 -2 5 C-2.52078125 4.69320312 -3.0415625 4.38640625 -3.578125 4.0703125 C-6.61656401 2.72751849 -9.46388645 2.3350559 -12.75 1.875 C-13.92046875 1.70742187 -15.0909375 1.53984375 -16.296875 1.3671875 C-17.63492188 1.18542969 -17.63492188 1.18542969 -19 1 C-19 0.67 -19 0.34 -19 0 C-17.95199219 -0.09087891 -17.95199219 -0.09087891 -16.8828125 -0.18359375 C-15.97273437 -0.26738281 -15.06265625 -0.35117188 -14.125 -0.4375 C-13.22007812 -0.51871094 -12.31515625 -0.59992188 -11.3828125 -0.68359375 C-6.70743839 -1.30442212 -4.88664227 -1.53838738 0 0 Z " fill="#383332" transform="translate(199,191)"/>
<path d="M0 0 C4.87664009 -0.34833144 7.77050005 0.58314288 12 3 C12 3.66 12 4.32 12 5 C8.37 4.67 4.74 4.34 1 4 C0.67 2.68 0.34 1.36 0 0 Z " fill="#2E1112" transform="translate(259,15)"/>
<path d="M0 0 C0.66 0.33 1.32 0.66 2 1 C0.35 4.63 -1.3 8.26 -3 12 C-3.99 11.67 -4.98 11.34 -6 11 C-5.57576756 9.53775201 -5.13509755 8.08026588 -4.6875 6.625 C-4.44386719 5.81289063 -4.20023438 5.00078125 -3.94921875 4.1640625 C-3 2 -3 2 0 0 Z " fill="#2B1E1E" transform="translate(240,299)"/>
<path d="M0 0 C3.6875 0.3125 3.6875 0.3125 6.125 2.3125 C6.8984375 3.3025 6.8984375 3.3025 7.6875 4.3125 C7.08421875 4.30089844 6.4809375 4.28929687 5.859375 4.27734375 C5.06015625 4.26832031 4.2609375 4.25929687 3.4375 4.25 C2.64859375 4.23839844 1.8596875 4.22679687 1.046875 4.21484375 C-1.21941002 4.30864694 -3.1413895 4.68008937 -5.3125 5.3125 C-4.20242537 0.39645522 -4.20242537 0.39645522 0 0 Z " fill="#E0DEDE" transform="translate(184.3125,149.6875)"/>
<path d="M0 0 C0.79664063 0.00257812 1.59328125 0.00515625 2.4140625 0.0078125 C3.20554688 0.00523438 3.99703125 0.00265625 4.8125 0 C7.0390625 0.1328125 7.0390625 0.1328125 10.0390625 1.1328125 C10.3690625 2.1228125 10.6990625 3.1128125 11.0390625 4.1328125 C9.08004796 4.01898597 7.1218287 3.89140125 5.1640625 3.7578125 C4.07351562 3.68820313 2.98296875 3.61859375 1.859375 3.546875 C-0.9609375 3.1328125 -0.9609375 3.1328125 -2.9609375 1.1328125 C-1.9609375 0.1328125 -1.9609375 0.1328125 0 0 Z " fill="#221514" transform="translate(248.9609375,13.8671875)"/>
<path d="M0 0 C-0.33 0.33 -0.66 0.66 -1 1 C1.97 1.495 1.97 1.495 5 2 C5 2.33 5 2.66 5 3 C2.62561751 3.3383344 0.25065041 3.67079002 -2.125 4 C-2.79015625 4.09539062 -3.4553125 4.19078125 -4.140625 4.2890625 C-8.12628981 4.83611453 -11.97859938 5.10022182 -16 5 C-13.00995759 3.46325727 -9.98176115 2.09693707 -6.875 0.8125 C-5.57175781 0.26529297 -5.57175781 0.26529297 -4.2421875 -0.29296875 C-2 -1 -2 -1 0 0 Z " fill="#E12E3A" transform="translate(240,182)"/>
<path d="M0 0 C0.33 0 0.66 0 1 0 C1.42034404 6.09498863 1.07814737 9.12887953 -3 14 C-5.25 15.875 -5.25 15.875 -7 17 C-7.66 16.67 -8.32 16.34 -9 16 C-7.8553125 14.6696875 -7.8553125 14.6696875 -6.6875 13.3125 C-3.20646688 9.11159317 -0.7854373 5.49806109 0 0 Z " fill="#E44651" transform="translate(236,164)"/>
<path d="M0 0 C-3.37097383 1.49821059 -5.20442119 2 -9 2 C-9.33 2.66 -9.66 3.32 -10 4 C-13.3 3.67 -16.6 3.34 -20 3 C-16.38215466 1.19107733 -13.91814124 0.46389098 -10 -0.1875 C-8.453125 -0.45626953 -8.453125 -0.45626953 -6.875 -0.73046875 C-4.20914487 -0.98039267 -2.50755482 -0.84991642 0 0 Z " fill="#434241" transform="translate(145,15)"/>
<path d="M0 0 C2 2 2 2 2 5 C1.01 4.67 0.02 4.34 -1 4 C-2.72795352 3.93197033 -4.45835365 3.91504355 -6.1875 3.9375 C-7.08855469 3.94652344 -7.98960937 3.95554688 -8.91796875 3.96484375 C-9.94857422 3.98224609 -9.94857422 3.98224609 -11 4 C-7.4088003 0.24556395 -5.2575533 -0.32859708 0 0 Z " fill="#F9E0E2" transform="translate(218,150)"/>
<path d="M0 0 C0.70125 0.09023438 1.4025 0.18046875 2.125 0.2734375 C4 0.625 4 0.625 6 1.625 C6.625 3.6875 6.625 3.6875 7 5.625 C5.39402675 5.17303755 3.79027492 4.71317673 2.1875 4.25 C1.29417969 3.99476562 0.40085937 3.73953125 -0.51953125 3.4765625 C-3 2.625 -3 2.625 -6 0.625 C-3.6150282 -0.5674859 -2.60431911 -0.354264 0 0 Z " fill="#241514" transform="translate(311,27.375)"/>
<path d="M0 0 C0.66 0.33 1.32 0.66 2 1 C0.68 3.97 -0.64 6.94 -2 10 C-2.99 9.67 -3.98 9.34 -5 9 C-3.375 2.25 -3.375 2.25 0 0 Z " fill="#2C201F" transform="translate(329,112)"/>
<path d="M0 0 C-0.99 1.485 -0.99 1.485 -2 3 C-7.14621987 3.34889626 -11.92681313 2.84553115 -17 2 C-17 1.67 -17 1.34 -17 1 C-11.29309366 0.00749455 -5.78591511 -0.10477512 0 0 Z " fill="#C30410" transform="translate(241,68)"/>
<path d="M0 0 C0.66 0 1.32 0 2 0 C2.39012425 1.76756294 2.7616098 3.53924783 3.125 5.3125 C3.33382812 6.29863281 3.54265625 7.28476562 3.7578125 8.30078125 C4 11 4 11 2 14 C1.34 13.67 0.68 13.34 0 13 C0 8.71 0 4.42 0 0 Z " fill="#392B0D" transform="translate(133,50)"/>
<path d="M0 0 C0 0.99 0 1.98 0 3 C-4.62 3.66 -9.24 4.32 -14 5 C-11.96470413 2.96470413 -10.76582618 2.3615728 -8.125 1.375 C-7.10792969 0.98441406 -7.10792969 0.98441406 -6.0703125 0.5859375 C-4 0 -4 0 0 0 Z " fill="#F2B6BB" transform="translate(221,185)"/>
<path d="M0 0 C0.6875 1.625 0.6875 1.625 1 4 C-0.4375 7.25 -0.4375 7.25 -2 10 C-2.33 9.34 -2.66 8.68 -3 8 C-3.66 7.67 -4.32 7.34 -5 7 C-1.125 1.125 -1.125 1.125 0 0 Z " fill="#251F1E" transform="translate(248,282)"/>
<path d="M0 0 C0 0.33 0 0.66 0 1 C1.65 1.33 3.3 1.66 5 2 C5 2.33 5 2.66 5 3 C-0.94 3.495 -0.94 3.495 -7 4 C-7 3.34 -7 2.68 -7 2 C-7.66 1.67 -8.32 1.34 -9 1 C-6.04335481 -0.4783226 -3.25770263 -0.06032783 0 0 Z " fill="#E21B29" transform="translate(213,189)"/>
<path d="M0 0 C2.5 1.125 2.5 1.125 5 3 C5.3125 6.1875 5.3125 6.1875 5 9 C4.01 8.67 3.02 8.34 2 8 C2 6.35 2 4.7 2 3 C1.01 2.67 0.02 2.34 -1 2 C-0.67 1.34 -0.34 0.68 0 0 Z " fill="#42330E" transform="translate(171,44)"/>
<path d="M0 0 C0.99 0 1.98 0 3 0 C2.8125 2.3125 2.8125 2.3125 2 5 C-0.5625 6.8125 -0.5625 6.8125 -3 8 C-2.67 8.66 -2.34 9.32 -2 10 C-2.99 10 -3.98 10 -5 10 C-5.33 9.01 -5.66 8.02 -6 7 C-5.195625 6.21625 -4.39125 5.4325 -3.5625 4.625 C-1.01309583 2.28017144 -1.01309583 2.28017144 0 0 Z " fill="#F9E3E5" transform="translate(226,177)"/>
<path d="M0 0 C5.52677733 -0.19392201 9.75614911 0.2520497 15 2 C15 2.33 15 2.66 15 3 C9.47322267 3.19392201 5.24385089 2.7479503 0 1 C0 0.67 0 0.34 0 0 Z " fill="#1C0F0F" transform="translate(245,73)"/>
<path d="M0 0 C2.62355506 2.37369268 4.21079743 4.96613477 6 8 C6.66 8.66 7.32 9.32 8 10 C6.35 10.33 4.7 10.66 3 11 C2.49384702 9.73160474 1.99530901 8.46016898 1.5 7.1875 C1.2215625 6.47980469 0.943125 5.77210937 0.65625 5.04296875 C0 3 0 3 0 0 Z " fill="#49370D" transform="translate(92,63)"/>
<path d="M0 0 C0.33 0 0.66 0 1 0 C0.85831863 1.43791516 0.71148957 2.8753237 0.5625 4.3125 C0.48128906 5.11300781 0.40007812 5.91351563 0.31640625 6.73828125 C0 9 0 9 -1 12 C-1.66 12 -2.32 12 -3 12 C-2.88541307 10.56163249 -2.75790884 9.12429034 -2.625 7.6875 C-2.55539062 6.88699219 -2.48578125 6.08648437 -2.4140625 5.26171875 C-2 3 -2 3 0 0 Z " fill="#291F0D" transform="translate(286,51)"/>
<path d="M0 0 C-2.62198774 2.15377564 -4.64404172 3.40072174 -8 4 C-8 2.68 -8 1.36 -8 0 C-4.71023192 -1.09658936 -3.28696233 -0.79953138 0 0 Z " fill="#221817" transform="translate(67,37)"/>
<path d="M0 0 C1.32 0 2.64 0 4 0 C2.52307692 5.66153846 2.52307692 5.66153846 -0.125 7.375 C-1.053125 7.684375 -1.053125 7.684375 -2 8 C-1.34 5.36 -0.68 2.72 0 0 Z " fill="#29200E" transform="translate(294,58)"/>
<path d="M0 0 C0.99 0 1.98 0 3 0 C3 2.64 3 5.28 3 8 C2.01 8 1.02 8 0 8 C0 5.36 0 2.72 0 0 Z " fill="#41320D" transform="translate(201,43)"/>
<path d="M0 0 C-1.75 5.75 -1.75 5.75 -4 8 C-4.66 7.67 -5.32 7.34 -6 7 C-5.6875 4.625 -5.6875 4.625 -5 2 C-2 0 -2 0 0 0 Z " fill="#2C2120" transform="translate(339,95)"/>
<path d="M0 0 C0.66 0 1.32 0 2 0 C1.67 2.31 1.34 4.62 1 7 C0.01 7.33 -0.98 7.66 -2 8 C-1.125 1.125 -1.125 1.125 0 0 Z " fill="#37290D" transform="translate(306,60)"/>
<path d="M0 0 C1.32 0 2.64 0 4 0 C3.34 1.98 2.68 3.96 2 6 C1.01 6 0.02 6 -1 6 C-1.33 5.34 -1.66 4.68 -2 4 C-1.0625 1.875 -1.0625 1.875 0 0 Z " fill="#351E1F" transform="translate(276,219)"/>
<path d="M0 0 C-0.928125 0.268125 -1.85625 0.53625 -2.8125 0.8125 C-5.8311641 1.93710035 -6.9155143 2.70706573 -9 5 C-9.66 5 -10.32 5 -11 5 C-10.875 3.125 -10.875 3.125 -10 1 C-6.36961463 -0.69417984 -3.80522763 -1.46354909 0 0 Z " fill="#3A3635" transform="translate(100,25)"/>
<path d="M0 0 C3.0625 0.1875 3.0625 0.1875 5.0625 2.1875 C4.0625 3.1875 4.0625 3.1875 1.125 3.375 C-1.9375 3.1875 -1.9375 3.1875 -3.9375 1.1875 C-2.9375 0.1875 -2.9375 0.1875 0 0 Z " fill="#25201F" transform="translate(302.9375,24.8125)"/>
<path d="M0 0 C4.29 0 8.58 0 13 0 C12.67 0.99 12.34 1.98 12 3 C6.06 2.01 6.06 2.01 0 1 C0 0.67 0 0.34 0 0 Z " fill="#3C1113" transform="translate(276,21)"/>
<path d="M0 0 C0.99 0.33 1.98 0.66 3 1 C2.34 2.98 1.68 4.96 1 7 C0.34 7 -0.32 7 -1 7 C-0.67 4.69 -0.34 2.38 0 0 Z " fill="#4A390D" transform="translate(309,49)"/>
<path d="M0 0 C0.99 0.33 1.98 0.66 3 1 C3 3.31 3 5.62 3 8 C2.34 8 1.68 8 1 8 C0.67 5.36 0.34 2.72 0 0 Z " fill="#3B2D0D" transform="translate(152,34)"/>
<path d="M0 0 C0.99 0.33 1.98 0.66 3 1 C3 2.65 3 4.3 3 6 C2.01 6.33 1.02 6.66 0 7 C0 4.69 0 2.38 0 0 Z " fill="#44340D" transform="translate(201,31)"/>
<path d="M0 0 C-0.33 0.99 -0.66 1.98 -1 3 C-2.98 3.33 -4.96 3.66 -7 4 C-6.67 3.01 -6.34 2.02 -6 1 C-3 0 -3 0 0 0 Z " fill="#281111" transform="translate(100,25)"/>
<path d="M0 0 C2.875 -0.125 2.875 -0.125 6 0 C6.66 0.66 7.32 1.32 8 2 C5.69 2.33 3.38 2.66 1 3 C0.67 2.01 0.34 1.02 0 0 Z " fill="#333230" transform="translate(259,15)"/>
<path d="M0 0 C0.66 0 1.32 0 2 0 C2.66 1.98 3.32 3.96 4 6 C2.68 6 1.36 6 0 6 C-0.38218767 4.34385343 -0.71395102 2.67542976 -1 1 C-0.67 0.67 -0.34 0.34 0 0 Z " fill="#361717" transform="translate(175,332)"/>
<path d="M0 0 C0.66 0.99 1.32 1.98 2 3 C1.125 6.1875 1.125 6.1875 0 9 C-1.125 7.3125 -1.125 7.3125 -2 5 C-1.125 2.25 -1.125 2.25 0 0 Z " fill="#3B0D0F" transform="translate(237,290)"/>
<path d="M0 0 C2.125 0.9375 2.125 0.9375 4 2 C3.34 2 2.68 2 2 2 C2 3.32 2 4.64 2 6 C0.68 5.34 -0.64 4.68 -2 4 C-2 3.01 -2 2.02 -2 1 C-1.34 0.67 -0.68 0.34 0 0 Z " fill="#2C2827" transform="translate(195,190)"/>
<path d="M0 0 C0.99 0 1.98 0 3 0 C3 1.32 3 2.64 3 4 C3.66 4.33 4.32 4.66 5 5 C3.68 5 2.36 5 1 5 C0.67 3.35 0.34 1.7 0 0 Z " fill="#35270C" transform="translate(172,32)"/>
<path d="M0 0 C1.98 0.66 3.96 1.32 6 2 C6 2.66 6 3.32 6 4 C4.35 4 2.7 4 1 4 C0.67 2.68 0.34 1.36 0 0 Z " fill="#312F2D" transform="translate(317,29)"/>
<path d="M0 0 C-0.99 1.485 -0.99 1.485 -2 3 C-4.625 3.1875 -4.625 3.1875 -7 3 C-6.67 2.01 -6.34 1.02 -6 0 C-3 -1 -3 -1 0 0 Z " fill="#241E1E" transform="translate(90,28)"/>
<path d="M0 0 C0.33 0 0.66 0 1 0 C0.25 6.75 0.25 6.75 -2 9 C-2 8.34 -2 7.68 -2 7 C-2.66 6.67 -3.32 6.34 -4 6 C-3.34 6 -2.68 6 -2 6 C-1.34 4.02 -0.68 2.04 0 0 Z " fill="#B90612" transform="translate(203,368)"/>
<path d="M0 0 C0.66 0.99 1.32 1.98 2 3 C1.01 4.98 0.02 6.96 -1 9 C-1.66 8.34 -2.32 7.68 -3 7 C-2.01 4.69 -1.02 2.38 0 0 Z " fill="#B60813" transform="translate(233,305)"/>
<path d="M0 0 C0.33 0 0.66 0 1 0 C1.33 2.97 1.66 5.94 2 9 C1.01 8.67 0.02 8.34 -1 8 C-0.67 5.36 -0.34 2.72 0 0 Z " fill="#44340D" transform="translate(113,54)"/>
<path d="M0 0 C0.99 0.33 1.98 0.66 3 1 C3.33 2.98 3.66 4.96 4 7 C3.01 6.67 2.02 6.34 1 6 C0.67 4.02 0.34 2.04 0 0 Z " fill="#42330D" transform="translate(108,43)"/>
<path d="M0 0 C0.99 0.33 1.98 0.66 3 1 C3 2.65 3 4.3 3 6 C2.01 6 1.02 6 0 6 C0 4.02 0 2.04 0 0 Z " fill="#44340D" transform="translate(224,32)"/>
</svg>
